<svg xmlns="http://www.w3.org/2000/svg" viewBox="0 0 70 60"><path fill="#f7ec2f" d="M3.993 57L34.99 3l30.998 54z"/><path fill="#1d1d1d" d="M33.673 42.35l-1.845-21.417c-.16-1.696 1.528-2.863 3.162-2.863 1.635 0 3.32 1.167 3.164 2.863L36.307 42.35h-2.634m1.317 2.757c1.635 0 3.11 1.325 3.11 3.02 0 1.697-1.424 3.02-3.11 3.02s-3.11-1.325-3.11-3.02c0-1.696 1.476-3.02 3.11-3.02"/><path fill="#343435" d="M66.01 58.5H3.994c-.534 0-1.026-.285-1.292-.75-.267-.464-.267-1.036 0-1.502L33.7 2.25c.267-.464.76-.75 1.292-.75.534 0 1.026.286 1.292.75l30.89 53.81c.206.257.328.585.328.94 0 .83-.668 1.5-1.492 1.5m-59.43-3h56.825L34.993 6 6.58 55.5"/></svg>