<svg xmlns="http://www.w3.org/2000/svg" viewBox="0 0 30.00049 18.00049"><g fill="#f5f5f5"><path d="M14.96 18C8.877 18 3.195 14.667.134 9.3l-.17-.3.17-.3C3.195 3.334 8.877 0 14.96 0c6.086 0 11.768 3.334 14.83 8.7l.172.3-.172.3c-3.062 5.367-8.743 8.7-14.83 8.7M1.335 9c2.89 4.82 8.08 7.8 13.627 7.8 5.55 0 10.74-2.98 13.63-7.8-2.89-4.82-8.08-7.8-13.63-7.8C9.414 1.2 4.225 4.18 1.335 9M20.435 9c0 3.062-2.45 5.542-5.473 5.542-3.02 0-5.474-2.48-5.474-5.542 0-3.06 2.45-5.542 5.474-5.542 3.02 0 5.473 2.48 5.473 5.542"/></g></svg>