<svg xmlns="http://www.w3.org/2000/svg" viewBox="0 0 50 32"><path fill="#003976" d="M0 0h50v32H0z"/><path fill="#fff" d="M0 10.664h10.56L0 3.89V0h6.04l14.774 9.414V0h8.316v9.414L43.906 0H50v3.89l-10.61 6.774H50v10.67H39.39L50 28.11V32h-6.094L29.13 22.585V32h-8.316v-9.415L6.04 32H0v-3.89l10.56-6.775H0z"/><g fill="#e03a3e"><path d="M46.07 0L29.38 10.67h3.995L50 0zM50 32L33.36 21.335h4.01L50 29.458zM16.72 10.67L0 0v2.55l12.69 8.12zM16.687 21.335L0 32h3.993l16.69-10.665zM0 12.877h22.586V0h4.89v12.877H50v6.253H27.475V32h-4.89V19.13H0z"/></g></svg>