<svg xmlns="http://www.w3.org/2000/svg" viewBox="0 0 70 70"><circle fill="#ebf3e0" cx="34.5" cy="35.36" r="31"/><path fill="#343435" d="M34.5 67.86C16.58 67.86 2 53.28 2 35.36s14.58-32.5 32.5-32.5S67 17.44 67 35.36s-14.58 32.5-32.5 32.5m0-62C18.234 5.86 5 19.092 5 35.36c0 16.265 13.234 29.5 29.5 29.5S64 51.624 64 35.36c0-16.267-13.234-29.5-29.5-29.5"/><g fill="#6e9b40"><path d="M40.97 11.137c-.378-1.562-.378-1.51-1.294-1.778-3.5.215-3.824 2.907-3.824 3.715 0 .808 3.125 15.08 3.125 15.08s3.877 4.686 5.385 6.678c1.51 1.993 1.347 2.586 1.347 2.586s-7.05-8.24-7.702-9.21c-.646-.97-2.692-1.562-2.692-1.562s-2.478-.646-4.255-1.13c-1.776-.485-2.53-.216-2.53-.216s-3.663 1.454-4.255 1.67c-.593.214-1.508.43-1.024 2.477 1.24 4.146 6.302 1.4 6.302 1.4l4.416 1.345 2.478 3.77s-.7 3.716-.754 4.578c-.647.485-8.24.646-9.856.593-.43-1.238-2.477-2.908-2.477-3.77 0-.862.484-3.878.484-5.063 0-1.184-1.463-2.39-2.585-2.53-1.724-.216-2.91.7-2.91 1.292 0 .593-.214 3.124-.538 5.332-.323 2.21-.054 2.8-.054 2.8l8.94 19.442.055 3.123s2.046 1.185 7.378 1.185c5.333 0 8.24-1.077 8.24-1.077s-.053-1.022.055-2.422c.108-1.4 3.878-13.41 4.417-15.13.537-1.723.16-3.554.16-4.146 0-.592-5.654-27.466-6.03-29.03M48.24 14.206c.054-.54.054-1.454-1.562-1.993-2.424-.646-3.5 1.508-3.5 1.508l-.324 2.1 2.854 13.68s2.478-14.756 2.53-15.294M49.748 21.15c-1.777-.053-2.21 1.13-2.21 1.13l-1.507 9.05.647 3.286s4.093-10.394 4.47-11.31c.378-.915.378-2.1-1.4-2.154"/></g></svg>