<svg xmlns="http://www.w3.org/2000/svg" width="87.87" viewBox="0 0 87.87402 70.86621"><path fill="#f5f5f5" d="M68.26 34.743c7.604-4.797 13.295-10.09 13.295-17.938 0-7.844-9.357-14.4-21.603-15.88-4.865-.563-9.96-.777-14.13-.86L45.824 0h-3.768l.003.065c-4.173.083-9.267.296-14.13.86-12.244 1.48-21.604 7.838-21.604 15.68 0 7.848 5.69 13.34 13.295 18.14C17.3 37.886 2.6 57.876.005 60.642l11.05 5.63c1.016-1.3 17.893-27.923 20.676-31.798-4.64-2.49-13.916-7.926-13.916-16.965 0-4.154 2.66-11.133 20.19-11.317 1.043 18.968 1 18.97 1 28.788 0 1.938-1.56 34.51-1.747 35.892h13.557c-.186-1.38-1.947-33.762-1.947-35.892 0-9.94-.044-9.944.998-28.788 17.532.185 20.2 7.164 20.2 11.317 0 9.04-9.272 14.474-13.914 16.965 2.782 3.875 19.658 30.5 20.677 31.798l11.05-5.63c-2.598-2.77-17.295-22.754-19.615-25.894"/></svg>